<svg width="17.000000" height="12.000000" viewBox="0 0 17 12" fill="none" xmlns="http://www.w3.org/2000/svg" xmlns:xlink="http://www.w3.org/1999/xlink">
	<desc>
			Created with Pixso.
	</desc>
	<defs/>
	<path id="Vector" d="M5.31 4.2C5.31 3.91 5.55 3.67 5.84 3.67L10.62 3.67L10.62 0.55C10.62 0.32 10.91 0.2 11.07 0.37L15.77 5.12C15.98 5.33 15.98 5.66 15.77 5.87L11.07 10.62C10.91 10.79 10.62 10.67 10.62 10.43L10.62 7.31L5.84 7.31C5.55 7.31 5.31 7.08 5.31 6.78L5.31 4.2ZM4.25 4.2L4.25 6.78C4.25 7.66 4.96 8.38 5.84 8.38L9.56 8.38L9.56 10.43C9.56 11.61 10.99 12.21 11.82 11.37L16.53 6.62C17.15 6 17.15 4.99 16.53 4.37L11.82 -0.39C10.99 -1.22 9.56 -0.63 9.56 0.55L9.56 2.61L5.84 2.61C4.96 2.61 4.25 3.33 4.25 4.2ZM0 0.71L0 10.28C0 11.16 0.71 11.87 1.59 11.87L5.97 11.87C6.19 11.87 6.37 11.69 6.37 11.47L6.37 11.21C6.37 10.99 6.19 10.81 5.97 10.81L1.59 10.81C1.3 10.81 1.06 10.57 1.06 10.28L1.06 0.71C1.06 0.42 1.3 0.18 1.59 0.18L5.97 0.18C6.19 0.18 6.37 0 6.37 -0.22L6.37 -0.48C6.37 -0.7 6.19 -0.88 5.97 -0.88L1.59 -0.88C0.71 -0.88 0 -0.17 0 0.71Z" fill="#000000" fill-opacity="1.000000" fill-rule="nonzero"/>
</svg>
