<svg width="222.000000" height="24.000000" viewBox="0 0 222 24" fill="none" xmlns="http://www.w3.org/2000/svg" xmlns:xlink="http://www.w3.org/1999/xlink">
	<desc>
			Created with Pixso.
	</desc>
	<defs/>
	<path id="CRUD OPERATIONS" d="M19.53 18.57Q21.05 19.23 22.85 19.23Q24.68 19.23 26.16 18.59Q27.03 18.21 27.74 17.63Q28.23 17.23 28.64 16.73L26.56 14.82Q25.76 15.74 24.76 16.15Q23.97 16.48 23.04 16.48Q21.87 16.48 20.93 16.02Q20.82 15.96 20.72 15.9Q20.19 15.61 19.79 15.2Q19.4 14.81 19.12 14.32Q19.07 14.22 19.02 14.13Q18.55 13.18 18.55 11.99Q18.55 10.83 19.01 9.89Q19.06 9.78 19.12 9.67Q19.41 9.16 19.82 8.76Q20.21 8.37 20.72 8.09Q20.82 8.03 20.93 7.97Q21.87 7.52 23.04 7.52Q23.98 7.52 24.79 7.85Q25.78 8.26 26.56 9.16L28.64 7.24Q28.25 6.78 27.8 6.4Q27.07 5.79 26.16 5.4Q24.7 4.76 22.87 4.76Q20.99 4.76 19.43 5.47Q19.2 5.57 18.98 5.69Q18 6.22 17.26 6.97Q16.69 7.55 16.26 8.27Q16.04 8.63 15.87 9.02Q15.28 10.37 15.28 11.99Q15.28 13.6 15.86 14.95Q16.04 15.35 16.26 15.72Q16.69 16.43 17.25 17.01Q17.99 17.77 18.98 18.31Q19.25 18.45 19.53 18.57ZM86.72 18.51Q88.31 19.23 90.24 19.23Q92.18 19.23 93.78 18.49Q93.97 18.4 94.15 18.3Q95.2 17.73 95.97 16.91Q96.49 16.37 96.89 15.7Q97.17 15.25 97.37 14.76Q97.89 13.48 97.89 11.99Q97.89 10.52 97.38 9.26Q97.18 8.76 96.89 8.29Q96.49 7.62 95.96 7.07Q95.19 6.26 94.15 5.7Q93.95 5.59 93.75 5.5Q92.17 4.76 90.24 4.76Q88.33 4.76 86.75 5.48Q86.52 5.58 86.3 5.7Q85.24 6.27 84.46 7.1Q83.95 7.64 83.56 8.29Q83.3 8.73 83.11 9.2Q82.58 10.49 82.58 11.99Q82.58 13.52 83.12 14.82Q83.31 15.28 83.56 15.7Q83.95 16.35 84.45 16.88Q85.23 17.72 86.3 18.3Q86.51 18.41 86.72 18.51ZM179.7 18.51Q181.29 19.23 183.22 19.23Q185.16 19.23 186.76 18.49Q186.95 18.4 187.13 18.3Q188.18 17.73 188.96 16.91Q189.47 16.37 189.87 15.7Q190.15 15.25 190.35 14.76Q190.87 13.48 190.87 11.99Q190.87 10.52 190.36 9.26Q190.16 8.76 189.87 8.29Q189.47 7.62 188.94 7.07Q188.17 6.26 187.13 5.7Q186.93 5.59 186.73 5.5Q185.15 4.76 183.22 4.76Q181.31 4.76 179.73 5.48Q179.5 5.58 179.28 5.7Q178.22 6.27 177.44 7.1Q176.93 7.64 176.54 8.29Q176.28 8.73 176.09 9.2Q175.56 10.49 175.56 11.99Q175.56 13.52 176.1 14.82Q176.29 15.28 176.54 15.7Q176.93 16.35 177.43 16.88Q178.22 17.72 179.28 18.3Q179.49 18.41 179.7 18.51ZM211.37 18.92Q212.69 19.23 214.08 19.23Q215.99 19.23 217.33 18.66Q218.67 18.08 219.34 17.09Q219.68 16.6 219.84 16.06Q220.02 15.5 220.02 14.89Q220.02 13.6 219.39 12.8Q219.34 12.74 219.29 12.68Q218.9 12.24 218.43 11.93Q218.02 11.66 217.54 11.48Q216.52 11.09 214.92 10.71Q213.38 10.38 212.63 10.03Q212.16 9.81 211.98 9.44Q211.87 9.23 211.87 8.96Q211.87 8.66 211.98 8.41Q212.14 8.05 212.52 7.79Q213.18 7.35 214.53 7.35Q214.55 7.35 214.56 7.35Q216.49 7.36 218.42 8.45L219.42 6Q218.46 5.4 217.18 5.08Q216.91 5.01 216.64 4.96Q215.61 4.76 214.55 4.76Q212.63 4.76 211.3 5.34Q209.97 5.91 209.31 6.91Q209.03 7.33 208.87 7.79Q208.66 8.42 208.66 9.12Q208.66 10.41 209.28 11.23Q209.33 11.29 209.38 11.35Q209.82 11.85 210.35 12.19Q210.72 12.42 211.14 12.57Q212.16 12.96 213.76 13.34Q214.8 13.58 215.4 13.78Q216.01 13.98 216.4 14.31Q216.61 14.48 216.71 14.7Q216.79 14.9 216.79 15.13Q216.79 15.38 216.71 15.6Q216.55 15.97 216.14 16.23Q215.48 16.64 214.09 16.64Q212.85 16.64 211.61 16.24Q210.37 15.84 209.48 15.18L208.38 17.61Q209.31 18.34 210.86 18.79Q211.12 18.86 211.37 18.92ZM37.04 15.09L39.74 19L43.21 19L40.07 14.49Q41.2 14.01 41.91 13.17Q42.06 12.98 42.2 12.77Q42.28 12.65 42.35 12.53Q42.95 11.47 42.95 10.07Q42.95 8.67 42.35 7.61Q42.29 7.49 42.21 7.38Q42.07 7.16 41.91 6.96Q41.21 6.12 40.1 5.62Q38.74 5 36.87 5L30.82 5L30.82 19L34.06 19L34.06 15.09L37.04 15.09ZM47.47 17.94Q49.08 19.23 51.74 19.23Q54.38 19.23 55.99 17.95Q56.21 17.77 56.4 17.57Q56.55 17.43 56.69 17.27Q58.07 15.64 58.07 12.83L58.07 5L54.88 5L54.88 12.72Q54.88 14.65 54.07 15.57Q53.93 15.74 53.75 15.87Q52.99 16.48 51.76 16.48Q50.48 16.48 49.73 15.85Q48.64 14.94 48.64 12.72L48.64 5L45.39 5L45.39 12.83Q45.39 15.64 46.78 17.27Q46.91 17.43 47.06 17.57Q47.26 17.77 47.47 17.94ZM67.63 5L61.28 5L61.28 19L67.63 19Q69.91 19 71.66 18.13Q72.84 17.54 73.66 16.64Q74.07 16.2 74.39 15.67Q74.49 15.51 74.58 15.34Q75.36 13.88 75.36 11.99Q75.36 10.1 74.57 8.63Q74.48 8.47 74.39 8.32Q74.07 7.79 73.66 7.35Q72.84 6.45 71.66 5.87Q69.91 5 67.63 5ZM109.62 5.62Q108.26 5 106.4 5L100.34 5L100.34 19L103.58 19L103.58 15.13L106.4 15.13Q108.26 15.13 109.62 14.53Q110.7 14.05 111.39 13.24Q111.57 13.02 111.73 12.77Q111.84 12.6 111.93 12.43Q112.47 11.4 112.47 10.07Q112.47 8.67 111.87 7.61Q111.81 7.49 111.73 7.38Q111.59 7.16 111.43 6.96Q110.73 6.12 109.62 5.62ZM125.62 19L125.62 16.4L117.99 16.4L117.99 13.16L124.5 13.16L124.5 10.64L117.99 10.64L117.99 7.59L125.36 7.59L125.36 5L114.78 5L114.78 19L125.62 19ZM134.42 15.09L137.12 19L140.59 19L137.45 14.49Q138.58 14.01 139.29 13.17Q139.45 12.98 139.58 12.77Q139.66 12.65 139.73 12.53Q140.33 11.47 140.33 10.07Q140.33 8.67 139.73 7.61Q139.67 7.49 139.59 7.38Q139.45 7.16 139.29 6.96Q138.59 6.12 137.48 5.62Q136.12 5 134.25 5L128.2 5L128.2 19L131.44 19L131.44 15.09L134.42 15.09ZM145.62 16L152.11 16L153.35 19L156.75 19L150.49 5L147.3 5L141.05 19L144.38 19L145.62 16ZM155.93 7.63L160.42 7.63L160.42 19L163.65 19L163.65 7.63L168.14 7.63L168.14 5L155.93 5L155.93 7.63ZM173.12 5L169.88 5L169.88 19L173.12 19L173.12 5ZM206.16 19L206.16 5L202.95 5L202.95 13.5L196 5L193.32 5L193.32 19L196.51 19L196.51 10.49L203.5 19L206.16 19ZM91.98 16.15Q91.18 16.48 90.24 16.48Q89.28 16.48 88.46 16.13Q88.22 16.03 88 15.9Q87.53 15.64 87.16 15.28Q86.73 14.86 86.42 14.32Q86.37 14.22 86.32 14.13Q85.85 13.18 85.85 11.99Q85.85 10.83 86.31 9.89Q86.36 9.78 86.42 9.67Q86.74 9.1 87.19 8.68Q87.55 8.34 88 8.09Q88.22 7.96 88.46 7.86Q89.28 7.52 90.24 7.52Q91.18 7.52 91.98 7.84Q92.23 7.95 92.47 8.09Q92.92 8.34 93.28 8.68Q93.73 9.1 94.05 9.67Q94.11 9.78 94.16 9.89Q94.62 10.83 94.62 11.99Q94.62 13.18 94.15 14.13Q94.1 14.22 94.05 14.32Q93.74 14.86 93.31 15.28Q92.94 15.64 92.47 15.9Q92.23 16.04 91.98 16.15ZM184.96 16.15Q184.16 16.48 183.22 16.48Q182.26 16.48 181.44 16.13Q181.2 16.03 180.98 15.9Q180.51 15.64 180.14 15.28Q179.71 14.86 179.4 14.32Q179.35 14.22 179.3 14.13Q178.83 13.18 178.83 11.99Q178.83 10.83 179.29 9.89Q179.34 9.78 179.4 9.67Q179.72 9.1 180.18 8.68Q180.53 8.34 180.98 8.09Q181.2 7.96 181.44 7.86Q182.26 7.52 183.22 7.52Q184.16 7.52 184.96 7.84Q185.21 7.95 185.45 8.09Q185.9 8.34 186.26 8.68Q186.71 9.1 187.03 9.67Q187.09 9.78 187.14 9.89Q187.6 10.83 187.6 11.99Q187.6 13.18 187.13 14.13Q187.08 14.22 187.03 14.32Q186.72 14.86 186.29 15.28Q185.92 15.64 185.45 15.9Q185.21 16.04 184.96 16.15ZM39.26 8.64Q39.67 9.21 39.67 10.07Q39.67 10.9 39.29 11.46Q39.13 11.69 38.91 11.88Q38.15 12.52 36.69 12.52L34.06 12.52L34.06 7.63L36.69 7.63Q38.15 7.63 38.91 8.27Q39.12 8.44 39.26 8.64ZM108.43 11.87Q107.67 12.5 106.21 12.5L103.58 12.5L103.58 7.63L106.21 7.63Q107.67 7.63 108.43 8.27Q108.64 8.44 108.79 8.64Q109.19 9.21 109.19 10.07Q109.19 10.91 108.8 11.47Q108.65 11.69 108.43 11.87ZM136.64 8.64Q137.05 9.21 137.05 10.07Q137.05 10.9 136.67 11.46Q136.51 11.69 136.29 11.88Q135.53 12.52 134.07 12.52L131.44 12.52L131.44 7.63L134.07 7.63Q135.53 7.63 136.29 8.27Q136.5 8.44 136.64 8.64ZM70.45 15.48Q69.27 16.33 67.48 16.33L64.52 16.33L64.52 7.66L67.48 7.66Q69.26 7.66 70.44 8.51Q70.64 8.65 70.83 8.83Q71.16 9.14 71.4 9.5Q72.08 10.52 72.08 11.99Q72.08 13.47 71.4 14.5Q71.15 14.86 70.83 15.17Q70.65 15.33 70.45 15.48ZM148.88 8.17L151.09 13.54L146.66 13.54L148.88 8.17Z" fill="#000000" fill-opacity="1.000000" fill-rule="evenodd"/>
	<path id="Line 1" d="M2 0L2 " stroke="#F8D442" stroke-opacity="1.000000" stroke-width="4.000000"/>
</svg>
