<svg width="151.000000" height="18.000000" viewBox="0 0 151 18" fill="none" xmlns="http://www.w3.org/2000/svg" xmlns:xlink="http://www.w3.org/1999/xlink">
	<desc>
			Created with Pixso.
	</desc>
	<defs/>
	<path id="Students List" d="M124.82 3.17Q125.35 3.51 126.09 3.51Q126.81 3.51 127.32 3.19Q127.49 3.08 127.63 2.95Q127.89 2.7 128.03 2.4Q128.23 2.01 128.23 1.53Q128.23 1.13 128.08 0.8Q127.93 0.47 127.63 0.21Q127.52 0.11 127.4 0.03Q126.86 -0.32 126.09 -0.32Q125.36 -0.32 124.84 0.01Q124.68 0.11 124.55 0.23Q124.26 0.49 124.12 0.82Q123.96 1.17 123.96 1.6Q123.96 2 124.1 2.35Q124.25 2.69 124.55 2.96Q124.68 3.08 124.82 3.17ZM51.36 17L51.36 0.67L47.93 0.67L47.93 6.41Q47.6 6.05 47.2 5.77Q46.06 4.99 44.38 4.99Q43.04 4.99 41.9 5.47Q41.62 5.59 41.36 5.73Q40.8 6.04 40.34 6.46Q39.68 7.05 39.23 7.86Q38.46 9.25 38.46 11.08Q38.46 12.9 39.23 14.29Q39.68 15.09 40.33 15.69Q40.79 16.11 41.36 16.43Q41.62 16.57 41.9 16.69Q43.04 17.17 44.38 17.17Q46.2 17.17 47.38 16.3Q47.76 16.01 48.08 15.63L48.08 17L51.36 17ZM2.91 16.91Q4.35 17.26 5.88 17.26Q7.99 17.26 9.46 16.62Q10.94 15.99 11.68 14.89Q12.04 14.36 12.23 13.76Q12.42 13.15 12.42 12.48Q12.42 11.06 11.73 10.18Q11.67 10.11 11.61 10.04Q11.19 9.57 10.68 9.23Q10.22 8.92 9.69 8.72Q8.57 8.3 6.8 7.89Q5.11 7.52 4.29 7.13Q3.77 6.89 3.58 6.49Q3.46 6.25 3.46 5.95Q3.46 5.63 3.58 5.36Q3.75 4.96 4.17 4.67Q4.89 4.19 6.39 4.19Q6.4 4.19 6.42 4.19Q8.54 4.2 10.66 5.4L11.76 2.7Q10.7 2.04 9.29 1.69Q9 1.61 8.7 1.55Q7.57 1.33 6.41 1.33Q4.3 1.33 2.83 1.97Q1.37 2.61 0.64 3.7Q0.34 4.16 0.16 4.67Q-0.08 5.36 -0.08 6.13Q-0.08 7.55 0.61 8.45Q0.66 8.52 0.72 8.59Q1.2 9.14 1.79 9.51Q2.19 9.76 2.65 9.93Q3.77 10.35 5.53 10.77Q6.68 11.03 7.34 11.25Q8.01 11.47 8.44 11.84Q8.67 12.03 8.78 12.27Q8.87 12.49 8.87 12.75Q8.87 13.02 8.77 13.26Q8.61 13.66 8.15 13.95Q7.42 14.4 5.9 14.4Q4.54 14.4 3.17 13.96Q1.81 13.52 0.82 12.79L-0.39 15.48Q0.64 16.27 2.35 16.76Q2.63 16.85 2.91 16.91ZM114.89 1.6L111.33 1.6L111.33 17L122.61 17L122.61 14.09L114.89 14.09L114.89 1.6ZM21.01 16.98Q21.74 16.8 22.25 16.43L21.32 14Q21.2 14.1 21.08 14.17Q20.58 14.44 19.94 14.44Q19.35 14.44 18.98 14.16Q18.91 14.1 18.85 14.04Q18.84 14.02 18.83 14.01Q18.47 13.61 18.47 12.88L18.47 8.06L21.42 8.06L21.42 5.43L18.47 5.43L18.47 2.54L15.03 2.54L15.03 5.43L13.21 5.43L13.21 8.06L15.03 8.06L15.03 12.92Q15.03 14.8 15.96 15.86Q16.07 15.98 16.19 16.09Q16.22 16.12 16.26 16.16Q17.41 17.17 19.45 17.17Q20.27 17.17 21.01 16.98ZM90 16.98Q90.73 16.8 91.24 16.43L90.32 14Q90.2 14.1 90.07 14.17Q89.58 14.44 88.93 14.44Q88.34 14.44 87.98 14.16Q87.9 14.1 87.84 14.04Q87.83 14.02 87.82 14.01Q87.46 13.61 87.46 12.88L87.46 8.06L90.41 8.06L90.41 5.43L87.46 5.43L87.46 2.54L84.03 2.54L84.03 5.43L82.2 5.43L82.2 8.06L84.03 8.06L84.03 12.92Q84.03 14.8 84.95 15.86Q85.06 15.98 85.18 16.09Q85.22 16.12 85.25 16.16Q86.4 17.17 88.45 17.17Q89.26 17.17 90 16.98ZM149.07 16.98Q149.81 16.8 150.31 16.43L149.39 14Q149.27 14.1 149.14 14.17Q148.65 14.44 148 14.44Q147.41 14.44 147.05 14.16Q146.97 14.1 146.91 14.04Q146.9 14.02 146.89 14.01Q146.53 13.61 146.53 12.88L146.53 8.06L149.48 8.06L149.48 5.43L146.53 5.43L146.53 2.54L143.1 2.54L143.1 5.43L141.27 5.43L141.27 8.06L143.1 8.06L143.1 12.92Q143.1 14.8 144.03 15.86Q144.13 15.98 144.25 16.09Q144.28 16.12 144.32 16.16Q145.47 17.17 147.52 17.17Q148.33 17.17 149.07 16.98ZM66.05 12.04Q66.11 11.19 66.11 11.12Q66.11 9.31 65.34 7.94Q65.33 7.91 65.31 7.87Q64.88 7.13 64.28 6.57Q63.76 6.08 63.1 5.73Q62.9 5.62 62.69 5.53Q61.44 4.99 59.96 4.99Q58.47 4.99 57.21 5.53Q56.97 5.64 56.73 5.76Q55.98 6.17 55.4 6.74Q54.86 7.27 54.46 7.94Q54.25 8.3 54.1 8.68Q53.64 9.79 53.64 11.08Q53.64 12.47 54.17 13.64Q54.3 13.94 54.48 14.22Q54.71 14.62 55.01 14.96Q55.75 15.83 56.85 16.39Q58.4 17.17 60.4 17.17Q63.03 17.17 64.62 15.89Q64.98 15.6 65.28 15.25L63.46 13.28Q62.84 13.87 62.12 14.15Q61.41 14.42 60.49 14.42Q59.17 14.42 58.27 13.81Q58.26 13.79 58.24 13.78Q57.82 13.49 57.55 13.09Q57.23 12.63 57.1 12.04L66.05 12.04ZM78.45 5.74Q77.27 4.99 75.6 4.99Q74.39 4.99 73.37 5.39Q72.51 5.74 71.89 6.33Q71.78 6.43 71.68 6.54L71.68 5.16L68.41 5.16L68.41 17L71.84 17L71.84 11.14Q71.84 9.56 72.61 8.76Q72.81 8.55 73.06 8.39Q73.73 7.96 74.67 7.96Q75.63 7.96 76.21 8.42Q76.34 8.52 76.46 8.65Q77.07 9.34 77.07 10.75L77.07 17L80.51 17L80.51 10.22Q80.51 7.73 79.27 6.42Q79.21 6.36 79.15 6.31Q78.83 5.99 78.45 5.74ZM95.1 16.99Q96.11 17.17 97.16 17.17Q98.9 17.17 100.16 16.7Q101.43 16.23 102.09 15.37Q102.39 14.97 102.56 14.52Q102.75 14 102.75 13.41Q102.75 12.2 102.15 11.49Q102.11 11.44 102.07 11.39Q101.64 10.93 101.11 10.65Q100.8 10.48 100.46 10.38Q99.54 10.11 98.08 9.87Q96.79 9.67 96.19 9.45Q95.83 9.31 95.68 9.06Q95.59 8.89 95.59 8.68Q95.59 8.56 95.63 8.44Q95.74 8.12 96.14 7.89Q96.7 7.58 97.8 7.58Q98.93 7.58 99.96 7.91Q100.6 8.12 101.21 8.46L102.35 6.02Q101.54 5.53 100.29 5.26Q99.39 5.06 98.47 5.01Q98.13 4.99 97.8 4.99Q96.1 4.99 94.86 5.47Q93.62 5.95 92.97 6.82Q92.7 7.17 92.55 7.57Q92.32 8.14 92.32 8.81Q92.32 10.1 92.96 10.82Q92.99 10.85 93.01 10.88Q93.4 11.28 93.86 11.55Q94.23 11.76 94.65 11.89Q95.59 12.18 97.05 12.4Q98.28 12.55 98.87 12.77Q99.27 12.92 99.4 13.2Q99.47 13.33 99.47 13.5Q99.47 13.71 99.38 13.88Q99.04 14.57 97.29 14.57Q96.21 14.57 95.09 14.26Q93.97 13.94 93.18 13.43L92.03 15.89Q92.87 16.45 94.28 16.81Q94.69 16.92 95.1 16.99ZM132.92 16.99Q133.93 17.17 134.98 17.17Q136.72 17.17 137.98 16.7Q139.25 16.23 139.91 15.37Q140.21 14.97 140.38 14.52Q140.57 14 140.57 13.41Q140.57 12.2 139.97 11.49Q139.93 11.44 139.89 11.39Q139.45 10.93 138.93 10.65Q138.62 10.48 138.28 10.38Q137.36 10.11 135.9 9.87Q134.61 9.67 134.01 9.45Q133.64 9.31 133.5 9.06Q133.41 8.89 133.41 8.68Q133.41 8.56 133.45 8.44Q133.55 8.12 133.96 7.89Q134.51 7.58 135.62 7.58Q136.75 7.58 137.78 7.91Q138.42 8.12 139.03 8.46L140.17 6.02Q139.35 5.53 138.11 5.26Q137.21 5.06 136.29 5.01Q135.95 4.99 135.62 4.99Q133.92 4.99 132.68 5.47Q131.44 5.95 130.79 6.82Q130.52 7.17 130.36 7.57Q130.14 8.14 130.14 8.81Q130.14 10.1 130.78 10.82Q130.8 10.85 130.83 10.88Q131.21 11.28 131.68 11.55Q132.05 11.76 132.47 11.89Q133.41 12.18 134.87 12.4Q136.1 12.55 136.69 12.77Q137.09 12.92 137.22 13.2Q137.28 13.33 137.28 13.5Q137.28 13.71 137.2 13.88Q136.86 14.57 135.11 14.57Q134.03 14.57 132.91 14.26Q131.78 13.94 131 13.43L129.85 15.89Q130.69 16.45 132.1 16.81Q132.5 16.92 132.92 16.99ZM36.11 17L36.11 5.16L32.68 5.16L32.68 11.01Q32.68 12.6 31.93 13.4Q31.69 13.66 31.4 13.83Q30.79 14.2 29.95 14.2Q28.96 14.2 28.38 13.72Q27.55 13.02 27.55 11.34L27.55 5.16L24.12 5.16L24.12 11.85Q24.12 14.39 25.39 15.73Q25.44 15.78 25.49 15.83Q25.73 16.07 26 16.26Q27.26 17.17 29.18 17.17Q30.17 17.17 31.03 16.84Q31.13 16.81 31.23 16.76Q31.71 16.55 32.13 16.25Q32.52 15.96 32.85 15.59L32.85 17L36.11 17ZM127.81 5.16L124.37 5.16L124.37 17L127.81 17L127.81 5.16ZM58.44 7.95Q59.1 7.58 59.98 7.58Q60.79 7.58 61.41 7.91Q61.68 8.05 61.91 8.25Q62.17 8.47 62.37 8.74Q62.76 9.29 62.88 10.04L57.05 10.04Q57.18 9.21 57.64 8.63Q57.81 8.42 58.02 8.24Q58.22 8.08 58.44 7.95ZM46.33 14.06Q45.72 14.35 44.98 14.35Q44.17 14.35 43.53 14.02Q43.13 13.81 42.8 13.47Q42.64 13.31 42.52 13.13Q41.94 12.31 41.94 11.08Q41.94 9.86 42.51 9.04Q42.64 8.86 42.8 8.69Q43.14 8.34 43.55 8.13Q44.18 7.8 44.98 7.8Q45.72 7.8 46.32 8.09Q46.76 8.31 47.13 8.69Q47.29 8.86 47.42 9.04Q47.99 9.86 47.99 11.08Q47.99 12.31 47.41 13.13Q47.28 13.31 47.13 13.47Q46.77 13.84 46.33 14.06Z" fill="#000000" fill-opacity="1.000000" fill-rule="evenodd"/>
</svg>
